<?xml version="1.0" encoding="UTF-8"?>
<svg width="472px" height="439px" viewBox="0 0 472 439" version="1.1" xmlns="http://www.w3.org/2000/svg" xmlns:xlink="http://www.w3.org/1999/xlink">
    <!-- Generator: Sketch 49.2 (51160) - http://www.bohemiancoding.com/sketch -->
    <title>Group</title>
    <desc>Created with Sketch.</desc>
    <defs>
        <polygon id="path-1" points="0 438.875 471.918 438.875 471.918 0 0 0"></polygon>
    </defs>
    <g id="Home-page" stroke="none" stroke-width="1" fill="none" fill-rule="evenodd" opacity="0.28">
        <g id="Home-page-orange" transform="translate(-37.000000, -255.000000)">
            <g id="hero">
                <g id="Group-11" transform="translate(37.000000, 255.000000)">
                    <g id="Group">
                        <path d="M129.6749,273.5293 C129.6749,273.5293 129.8029,143.2363 129.8029,124.9733 C129.8029,117.4853 126.7929,113.8913 120.7169,113.8913 C118.5879,113.8913 99.9589,113.9203 99.9589,113.9203 L36.9179,113.9203" id="Stroke-1" stroke="#FEFEFE" stroke-width="2"></path>
                        <path d="M317.2462,121.7256 L317.2462,79.2916 L317.2462,35.1246 C317.2462,28.4976 322.6182,23.1246 329.2462,23.1246 L367.4182,23.1246 C374.0452,23.1246 379.4182,17.7526 379.4182,11.1246 L379.4182,6.4576" id="Stroke-3" stroke="#FEFEFE" stroke-width="2"></path>
                        <path d="M317.2462,140.6162 L317.2462,176.8482 C317.2462,183.4752 311.8732,188.8482 305.2462,188.8482 L266.0842,188.8482" id="Stroke-5" stroke="#FEFEFE" stroke-width="2"></path>
                        <path d="M371.7374,130.8403 L326.7414,130.8403" id="Stroke-7" stroke="#FEFEFE" stroke-width="2"></path>
                        <path d="M353.2687,75.0723 L353.2687,200.9083" id="Stroke-9" stroke="#FEFEFE" stroke-width="2"></path>
                        <path d="M348.8976,70.397 L289.1106,70.397" id="Stroke-11" stroke="#FEFEFE" stroke-width="2"></path>
                        <path d="M281.2228,67.4409 C282.7238,67.4409 283.9398,68.7709 283.9398,70.4109 C283.9398,72.0519 282.7238,73.3819 281.2228,73.3819 C279.7218,73.3819 278.5048,72.0519 278.5048,70.4109 C278.5048,68.7709 279.7218,67.4409 281.2228,67.4409 Z" id="Stroke-13" stroke="#FEFEFE" stroke-width="2"></path>
                        <path d="M281.2228,63.1431 C285.2368,63.1431 288.4918,66.3971 288.4918,70.4111 C288.4918,74.4251 285.2368,77.6801 281.2228,77.6801 C277.2078,77.6801 273.9538,74.4251 273.9538,70.4111 C273.9538,66.3971 277.2078,63.1431 281.2228,63.1431 Z" id="Stroke-15" stroke="#FEFEFE" stroke-width="2"></path>
                        <path d="M352.9679,65.9565 C355.3169,65.9565 357.2219,67.8605 357.2219,70.2105 C357.2219,72.5595 355.3169,74.4635 352.9679,74.4635 C350.6179,74.4635 348.7139,72.5595 348.7139,70.2105 C348.7139,67.8605 350.6179,65.9565 352.9679,65.9565 Z" id="Stroke-17" stroke="#FEFEFE" stroke-width="2"></path>
                        <path d="M325.4181,139.2134 C325.4181,140.5454 324.3381,141.6254 323.0061,141.6254 L309.8291,141.6254 C308.4971,141.6254 307.4181,140.5454 307.4181,139.2134 L307.4181,125.0364 C307.4181,123.7044 308.4971,122.6254 309.8291,122.6254 L323.0061,122.6254 C324.3381,122.6254 325.4181,123.7044 325.4181,125.0364 L325.4181,139.2134 Z" id="Stroke-19" stroke="#FEFEFE" stroke-width="2"></path>
                        <path d="M273.4181,70.625 L248.4181,70.625" id="Stroke-21" stroke="#FEFEFE" stroke-width="2"></path>
                        <path d="M189.4347,154.1118 C191.4897,155.2518 192.2307,157.8408 191.0907,159.8948 C189.9517,161.9488 187.3627,162.6908 185.3077,161.5508 C183.2537,160.4118 182.5117,157.8218 183.6517,155.7678 C184.7907,153.7138 187.3807,152.9718 189.4347,154.1118 Z" id="Stroke-23" stroke="#FEFEFE" stroke-width="2"></path>
                        <path d="M187.0372,161.771 L187.0372,295.125 C187.0372,301.752 192.4092,307.125 199.0372,307.125 L306.4182,307.125" id="Stroke-25" stroke="#FEFEFE" stroke-width="2"></path>
                        <path d="M307.3234,131.2178 C307.3234,131.2178 231.5494,130.9668 203.8194,130.9668 C192.4504,130.9668 186.9944,136.8948 186.9944,148.8628 L186.9944,153.8748" id="Stroke-27" stroke="#FEFEFE" stroke-width="2"></path>
                        <path d="M262.1681,278.125 L262.1681,270.125 C262.1681,263.498 256.7951,258.125 250.1681,258.125 L247.0201,258.125 C240.3921,258.125 235.0201,263.498 235.0201,270.125 L235.0201,291.792 C235.0201,291.792 234.8231,321.077 234.7771,353.959 L234.7771,370.875 C234.7771,377.502 240.1341,383.125 246.7621,383.125 L260.8241,383.125" id="Stroke-29" stroke="#FEFEFE" stroke-width="2"></path>
                        <path d="M248.3107,119.0684 L190.3957,119.0684 C189.8847,119.0684 189.4697,118.0114 189.4697,116.7084 L189.4697,71.4414 C189.4697,70.9254 189.8877,70.5074 190.4037,70.5074 L248.3027,70.5074 C248.8187,70.5074 249.2367,70.9254 249.2367,71.4414 L249.2367,116.7084 C249.2367,118.0114 248.8227,119.0684 248.3107,119.0684 Z" id="Stroke-31" stroke="#FEFEFE" stroke-width="1.868" stroke-linecap="round" stroke-linejoin="round"></path>
                        <path d="M190.4034,118.5234 C189.8874,118.5234 189.4694,118.1054 189.4694,117.5894 L189.4694,37.2774 C189.4694,36.7624 189.8874,36.3444 190.4034,36.3444 L246.2364,36.3444 C247.8934,36.3444 249.2364,37.6874 249.2364,39.3444 L249.2364,117.5894" id="Stroke-33" stroke="#FEFEFE" stroke-width="1.868" stroke-linecap="round" stroke-linejoin="round"></path>
                        <path d="M200.6759,47.5503 L238.0299,47.5503" id="Stroke-35" stroke="#FEFEFE" stroke-width="1.868" stroke-linecap="round" stroke-linejoin="round"></path>
                        <path d="M200.6759,55.0215 L238.0299,55.0215" id="Stroke-37" stroke="#FEFEFE" stroke-width="1.868" stroke-linecap="round" stroke-linejoin="round"></path>
                        <path d="M200.6759,60.7568 L238.0299,60.7568" id="Stroke-39" stroke="#FEFEFE" stroke-width="1.868" stroke-linecap="round" stroke-linejoin="round"></path>
                        <path d="M229.4757,81.8101 C229.0997,81.4561 228.5087,81.4741 228.1557,81.8491 L227.0827,82.9851 L215.8107,94.9441 C215.4497,95.3271 214.8427,95.3361 214.4707,94.9641 L211.5717,92.0641 L210.4677,90.9601 C210.1027,90.5961 209.5117,90.5961 209.1467,90.9601 L206.9397,93.1671 C206.5757,93.5321 206.5757,94.1231 206.9397,94.4881 L208.0427,95.5921 L213.4387,100.9871 L214.5757,102.1241 C214.9477,102.4961 215.5537,102.4871 215.9147,102.1051 L217.0187,100.9351 L230.7147,86.4101 L231.7867,85.2731 C232.1407,84.8971 232.1227,84.3071 231.7477,83.9531 L229.4757,81.8101 Z" id="Fill-41" fill="#FEFEFE"></path>
                        <path d="M103.8409,269.4775 L65.5529,269.4775 C65.0369,269.4775 64.6189,269.8955 64.6189,270.4115 L64.6189,332.0455 C64.6189,332.5625 65.0369,332.9805 65.5529,332.9805 L103.8409,332.9805 C106.9359,332.9805 109.4449,330.4715 109.4449,327.3765 L109.4449,275.0815 C109.4449,271.9865 106.9359,269.4775 103.8409,269.4775 M103.8409,271.3455 C105.9009,271.3455 107.5759,273.0215 107.5759,275.0815 L107.5759,327.3765 C107.5759,329.4365 105.9009,331.1125 103.8409,331.1125 L66.4869,331.1125 L66.4869,271.3455 L103.8409,271.3455" id="Fill-43" fill="#FEFEFE"></path>
                        <path d="M103.8409,269.4775 L65.5529,269.4775 C65.0369,269.4775 64.6189,269.8955 64.6189,270.4115 L64.6189,332.0455 C64.6189,332.5625 65.0369,332.9805 65.5529,332.9805 L103.8409,332.9805 C106.9359,332.9805 109.4449,330.4715 109.4449,327.3765 L109.4449,275.0815 C109.4449,271.9865 106.9359,269.4775 103.8409,269.4775 M103.8409,271.3455 C105.9009,271.3455 107.5759,273.0215 107.5759,275.0815 L107.5759,327.3765 C107.5759,329.4365 105.9009,331.1125 103.8409,331.1125 L66.4869,331.1125 L66.4869,271.3455 L103.8409,271.3455" id="Fill-45" fill="#FEFEFE"></path>
                        <path d="M75.6505,332.9805 L64.7945,332.9805 C64.6975,332.9805 64.6195,332.5615 64.6195,332.0455 L64.6195,270.4115 C64.6195,269.8955 64.6975,269.4775 64.7945,269.4775 L75.6505,269.4775 C75.7475,269.4775 75.8255,269.8955 75.8255,270.4115 L75.8255,332.0455 C75.8255,332.5615 75.7475,332.9805 75.6505,332.9805" id="Fill-47" fill="#FEFEFE"></path>
                        <mask id="mask-2" fill="white">
                            <use xlink:href="#path-1"></use>
                        </mask>
                        <g id="Clip-50"></g>
                        <path d="M98.239,332.981 L101.974,332.981 L101.974,269.478 L98.239,269.478 L98.239,332.981 Z M100.106,271.346 L100.106,331.112 L100.106,271.346 Z" id="Fill-49" fill="#FEFEFE" mask="url(#mask-2)"></path>
                        <path d="M129.671,273.2129 L129.671,290.5829 C129.671,296.7729 124.653,301.7889 118.464,301.7889 L110.62,301.7889" id="Stroke-51" stroke="#FEFEFE" stroke-width="2" mask="url(#mask-2)"></path>
                        <polygon id="Stroke-52" stroke="#FEFEFE" stroke-width="1.868" stroke-linecap="round" stroke-linejoin="round" mask="url(#mask-2)" points="329.731 210.363 380.054 210.363 380.054 201.975 329.731 201.975"></polygon>
                        <polygon id="Stroke-53" stroke="#FEFEFE" stroke-width="1.868" stroke-linecap="round" stroke-linejoin="round" mask="url(#mask-2)" points="329.7306 201.9746 321.3426 206.1676 329.7306 210.3626"></polygon>
                        <path d="M375.8605,206.168 L333.9235,206.168" id="Stroke-54" stroke="#FEFEFE" stroke-width="1.868" stroke-linecap="round" stroke-linejoin="round" mask="url(#mask-2)"></path>
                        <path d="M384.2482,207.3623 L384.2482,204.9743 C384.2482,203.3183 382.9042,201.9743 381.2482,201.9743 L380.0542,201.9743 L380.0542,210.3623 L381.2482,210.3623 C382.9042,210.3623 384.2482,209.0183 384.2482,207.3623 Z" id="Stroke-55" stroke="#FEFEFE" stroke-width="1.868" stroke-linecap="round" stroke-linejoin="round" mask="url(#mask-2)"></path>
                        <path d="M33.0001,92.228 L3.0001,92.228 C1.3431,92.228 0.0001,93.571 0.0001,95.228 L0.0001,133.228 C0.0001,134.885 1.3431,136.228 3.0001,136.228 L33.0001,136.228 C34.6561,136.228 36.0001,134.885 36.0001,133.228 L36.0001,95.228 C36.0001,93.571 34.6561,92.228 33.0001,92.228 M33.0001,94.096 C33.6241,94.096 34.1321,94.603 34.1321,95.228 L34.1321,133.228 C34.1321,133.852 33.6241,134.36 33.0001,134.36 L3.0001,134.36 C2.3751,134.36 1.8671,133.852 1.8671,133.228 L1.8671,95.228 C1.8671,94.603 2.3751,94.096 3.0001,94.096 L33.0001,94.096" id="Fill-56" fill="#FEFEFE" mask="url(#mask-2)"></path>
                        <path d="M16.0001,120.228 L28.0001,120.228" id="Stroke-57" stroke="#FEFEFE" stroke-width="1.868" stroke-linecap="round" stroke-linejoin="round" mask="url(#mask-2)"></path>
                        <path d="M16.0001,116.228 L28.0001,116.228" id="Stroke-58" stroke="#FEFEFE" stroke-width="1.868" stroke-linecap="round" stroke-linejoin="round" mask="url(#mask-2)"></path>
                        <path d="M16.0001,124.228 L28.0001,124.228" id="Stroke-59" stroke="#FEFEFE" stroke-width="1.868" stroke-linecap="round" stroke-linejoin="round" mask="url(#mask-2)"></path>
                        <path d="M16.0001,108.228 L28.0001,108.228" id="Stroke-60" stroke="#FEFEFE" stroke-width="1.868" stroke-linecap="round" stroke-linejoin="round" mask="url(#mask-2)"></path>
                        <path d="M16.0001,104.228 L28.0001,104.228" id="Stroke-61" stroke="#FEFEFE" stroke-width="1.868" stroke-linecap="round" stroke-linejoin="round" mask="url(#mask-2)"></path>
                        <path d="M16.0001,112.228 L28.0001,112.228" id="Stroke-62" stroke="#FEFEFE" stroke-width="1.868" stroke-linecap="round" stroke-linejoin="round" mask="url(#mask-2)"></path>
                        <path d="M8.0001,120.228 L12.0001,120.228" id="Stroke-63" stroke="#FEFEFE" stroke-width="1.868" stroke-linecap="round" stroke-linejoin="round" mask="url(#mask-2)"></path>
                        <path d="M8.0001,116.228 L12.0001,116.228" id="Stroke-64" stroke="#FEFEFE" stroke-width="1.868" stroke-linecap="round" stroke-linejoin="round" mask="url(#mask-2)"></path>
                        <path d="M8.0001,124.228 L12.0001,124.228" id="Stroke-65" stroke="#FEFEFE" stroke-width="1.868" stroke-linecap="round" stroke-linejoin="round" mask="url(#mask-2)"></path>
                        <path d="M8.0001,108.228 L12.0001,108.228" id="Stroke-66" stroke="#FEFEFE" stroke-width="1.868" stroke-linecap="round" stroke-linejoin="round" mask="url(#mask-2)"></path>
                        <path d="M8.0001,104.228 L12.0001,104.228" id="Stroke-67" stroke="#FEFEFE" stroke-width="1.868" stroke-linecap="round" stroke-linejoin="round" mask="url(#mask-2)"></path>
                        <path d="M8.0001,112.228 L12.0001,112.228" id="Stroke-68" stroke="#FEFEFE" stroke-width="1.868" stroke-linecap="round" stroke-linejoin="round" mask="url(#mask-2)"></path>
                        <path d="M262.4181,172.3105 L232.4181,172.3105 C230.7611,172.3105 229.4181,173.6535 229.4181,175.3105 L229.4181,213.3105 C229.4181,214.9675 230.7611,216.3105 232.4181,216.3105 L262.4181,216.3105 C264.0741,216.3105 265.4181,214.9675 265.4181,213.3105 L265.4181,175.3105 C265.4181,173.6535 264.0741,172.3105 262.4181,172.3105 M262.4181,174.1785 C263.0421,174.1785 263.5501,174.6855 263.5501,175.3105 L263.5501,213.3105 C263.5501,213.9345 263.0421,214.4435 262.4181,214.4435 L232.4181,214.4435 C231.7931,214.4435 231.2851,213.9345 231.2851,213.3105 L231.2851,175.3105 C231.2851,174.6855 231.7931,174.1785 232.4181,174.1785 L262.4181,174.1785" id="Fill-69" fill="#FEFEFE" mask="url(#mask-2)"></path>
                        <path d="M237.4181,200.3105 L257.4181,200.3105" id="Stroke-70" stroke="#FEFEFE" stroke-width="1.868" stroke-linecap="round" stroke-linejoin="round" mask="url(#mask-2)"></path>
                        <path d="M237.4181,196.3105 L257.4181,196.3105" id="Stroke-71" stroke="#FEFEFE" stroke-width="1.868" stroke-linecap="round" stroke-linejoin="round" mask="url(#mask-2)"></path>
                        <path d="M237.4181,204.3105 L257.4181,204.3105" id="Stroke-72" stroke="#FEFEFE" stroke-width="1.868" stroke-linecap="round" stroke-linejoin="round" mask="url(#mask-2)"></path>
                        <path d="M237.4181,188.3105 L257.4181,188.3105" id="Stroke-73" stroke="#FEFEFE" stroke-width="1.868" stroke-linecap="round" stroke-linejoin="round" mask="url(#mask-2)"></path>
                        <path d="M237.4181,184.3105 L257.4181,184.3105" id="Stroke-74" stroke="#FEFEFE" stroke-width="1.868" stroke-linecap="round" stroke-linejoin="round" mask="url(#mask-2)"></path>
                        <path d="M237.4181,192.3105 L257.4181,192.3105" id="Stroke-75" stroke="#FEFEFE" stroke-width="1.868" stroke-linecap="round" stroke-linejoin="round" mask="url(#mask-2)"></path>
                        <path d="M387.6769,353.5107 L313.3639,353.5107 C312.7009,353.5107 312.1639,352.9737 312.1639,352.3117 L312.1639,249.2317 C312.1639,248.5697 312.7009,248.0327 313.3639,248.0327 L387.6769,248.0327 C388.3389,248.0327 388.8749,248.5697 388.8749,249.2317 L388.8749,352.3117 C388.8749,352.9737 388.3389,353.5107 387.6769,353.5107 Z" id="Stroke-76" stroke="#FEFEFE" stroke-width="1.868" stroke-linecap="round" stroke-linejoin="round" mask="url(#mask-2)"></path>
                        <path d="M326.548,281.5938 L355.315,281.5938" id="Stroke-77" stroke="#FEFEFE" stroke-width="1.868" stroke-linecap="round" stroke-linejoin="round" mask="url(#mask-2)"></path>
                        <path d="M326.548,276.7998 L340.931,276.7998" id="Stroke-78" stroke="#FEFEFE" stroke-width="1.868" stroke-linecap="round" stroke-linejoin="round" mask="url(#mask-2)"></path>
                        <path d="M326.548,295.9775 L374.492,295.9775" id="Stroke-79" stroke="#FEFEFE" stroke-width="1.868" stroke-linecap="round" stroke-linejoin="round" mask="url(#mask-2)"></path>
                        <path d="M326.548,300.7715 L374.492,300.7715" id="Stroke-80" stroke="#FEFEFE" stroke-width="1.868" stroke-linecap="round" stroke-linejoin="round" mask="url(#mask-2)"></path>
                        <path d="M326.548,305.5664 L374.492,305.5664" id="Stroke-81" stroke="#FEFEFE" stroke-width="1.868" stroke-linecap="round" stroke-linejoin="round" mask="url(#mask-2)"></path>
                        <path d="M326.548,310.3604 L369.697,310.3604" id="Stroke-82" stroke="#FEFEFE" stroke-width="1.868" stroke-linecap="round" stroke-linejoin="round" mask="url(#mask-2)"></path>
                        <path d="M326.548,315.1553 L374.492,315.1553" id="Stroke-83" stroke="#FEFEFE" stroke-width="1.868" stroke-linecap="round" stroke-linejoin="round" mask="url(#mask-2)"></path>
                        <path d="M326.548,319.9492 L374.492,319.9492" id="Stroke-84" stroke="#FEFEFE" stroke-width="1.868" stroke-linecap="round" stroke-linejoin="round" mask="url(#mask-2)"></path>
                        <path d="M326.548,324.7441 L374.492,324.7441" id="Stroke-85" stroke="#FEFEFE" stroke-width="1.868" stroke-linecap="round" stroke-linejoin="round" mask="url(#mask-2)"></path>
                        <path d="M326.548,329.5381 L374.492,329.5381" id="Stroke-86" stroke="#FEFEFE" stroke-width="1.868" stroke-linecap="round" stroke-linejoin="round" mask="url(#mask-2)"></path>
                        <path d="M326.548,334.333 L364.903,334.333" id="Stroke-87" stroke="#FEFEFE" stroke-width="1.868" stroke-linecap="round" stroke-linejoin="round" mask="url(#mask-2)"></path>
                        <path d="M312.1642,252.8271 L388.8752,252.8271 C391.5232,252.8271 393.6702,250.6811 393.6702,248.0331 C393.6702,245.3851 391.5232,243.2381 388.8752,243.2381 L384.0812,243.2381 L312.1642,243.2381" id="Stroke-88" stroke="#FEFEFE" stroke-width="1.868" stroke-linecap="round" stroke-linejoin="round" mask="url(#mask-2)"></path>
                        <path d="M312.1642,334.333 L308.5682,334.333 C307.9062,334.333 307.3702,333.796 307.3702,333.134 L307.3702,248.239 C307.3702,245.735 309.2002,243.499 311.6932,243.261 C314.5532,242.988 316.9592,245.229 316.9592,248.033 C316.9592,250.34 315.3292,252.267 313.1582,252.724 C312.5892,252.845 312.1642,253.317 312.1642,253.9 L312.1642,334.333 Z" id="Stroke-89" stroke="#FEFEFE" stroke-width="1.868" stroke-linecap="round" stroke-linejoin="round" mask="url(#mask-2)"></path>
                        <path d="M353.3136,212.625 L353.3136,224.625 C353.3136,231.114 348.0526,236.375 341.5636,236.375 L336.6056,236.375 L312.6676,236.375 C306.0406,236.375 300.6676,241.748 300.6676,248.375 L300.6676,265.75 C300.6676,268.719 303.0746,271.125 306.0426,271.125" id="Stroke-90" stroke="#FEFEFE" stroke-width="2" mask="url(#mask-2)"></path>
                        <path d="M372.418,167.25 L471.918,167.25 L471.918,92.625 L372.418,92.625 L372.418,167.25 Z M374.418,165.25 L469.918,165.25 L469.918,94.625 L374.418,94.625 L374.418,165.25 Z" id="Fill-91" fill="#FEFEFE" mask="url(#mask-2)"></path>
                        <path d="M372.418,105.063 L471.918,105.063 L471.918,92.625 L372.418,92.625 L372.418,105.063 Z M374.418,103.063 L469.918,103.063 L469.918,94.625 L374.418,94.625 L374.418,103.063 Z" id="Fill-92" fill="#FEFEFE" mask="url(#mask-2)"></path>
                        <path d="M384.856,134.913 L412.218,134.913 L412.218,117.5 L384.856,117.5 L384.856,134.913 Z M385.856,133.913 L411.218,133.913 L411.218,118.5 L385.856,118.5 L385.856,133.913 Z" id="Fill-93" fill="#FEFEFE" mask="url(#mask-2)"></path>
                        <path d="M391.9601,125.0264 C393.0611,125.0264 393.9531,124.1334 393.9531,123.0324 C393.9531,121.9324 393.0611,121.0394 391.9601,121.0394 C390.8591,121.0394 389.9671,121.9324 389.9671,123.0324 C389.9671,124.1334 390.8591,125.0264 391.9601,125.0264 Z" id="Stroke-94" stroke="#FEFEFE" stroke-linecap="round" stroke-linejoin="round" mask="url(#mask-2)"></path>
                        <path d="M400.4171,125.6387 L396.6731,129.4777 C396.3921,129.7657 395.9441,129.8107 395.6121,129.5837 L393.8071,128.3527 C393.4781,128.1287 393.0351,128.1697 392.7531,128.4517 L389.5541,131.6517 L395.4501,131.6517 L399.8721,131.6517 L407.2421,131.6517 L401.6151,125.6507 C401.2921,125.3057 400.7461,125.3007 400.4171,125.6387 Z" id="Stroke-95" stroke="#FEFEFE" stroke-linecap="round" stroke-linejoin="round" mask="url(#mask-2)"></path>
                        <polygon id="Fill-96" fill="#FEFEFE" mask="url(#mask-2)" points="417.193 126.953 459.481 126.953 459.481 124.963 417.193 124.963"></polygon>
                        <polygon id="Fill-97" fill="#FEFEFE" mask="url(#mask-2)" points="417.193 131.928 459.481 131.928 459.481 129.938 417.193 129.938"></polygon>
                        <polygon id="Fill-98" fill="#FEFEFE" mask="url(#mask-2)" points="417.193 121.978 437.093 121.978 437.093 119.988 417.193 119.988"></polygon>
                        <path d="M432.118,159.788 L459.481,159.788 L459.481,142.375 L432.118,142.375 L432.118,159.788 Z M433.118,158.788 L458.481,158.788 L458.481,143.375 L433.118,143.375 L433.118,158.788 Z" id="Fill-99" fill="#FEFEFE" mask="url(#mask-2)"></path>
                        <path d="M439.4991,149.9014 C440.6001,149.9014 441.4921,149.0084 441.4921,147.9074 C441.4921,146.8074 440.6001,145.9144 439.4991,145.9144 C438.3981,145.9144 437.5061,146.8074 437.5061,147.9074 C437.5061,149.0084 438.3981,149.9014 439.4991,149.9014 Z" id="Stroke-100" stroke="#FEFEFE" stroke-linecap="round" stroke-linejoin="round" mask="url(#mask-2)"></path>
                        <path d="M447.8927,150.6035 L444.2657,154.3225 C443.9937,154.6025 443.5607,154.6455 443.2387,154.4255 L441.4897,153.2335 C441.1697,153.0155 440.7417,153.0555 440.4687,153.3285 L437.3697,156.4285 L443.0807,156.4285 L447.3657,156.4285 L454.5047,156.4285 L449.0537,150.6145 C448.7407,150.2815 448.2117,150.2755 447.8927,150.6035 Z" id="Stroke-101" stroke="#FEFEFE" stroke-linecap="round" stroke-linejoin="round" mask="url(#mask-2)"></path>
                        <polygon id="Fill-102" fill="#FEFEFE" mask="url(#mask-2)" points="384.856 151.828 427.143 151.828 427.143 149.838 384.856 149.838"></polygon>
                        <polygon id="Fill-103" fill="#FEFEFE" mask="url(#mask-2)" points="384.856 156.803 427.143 156.803 427.143 154.813 384.856 154.813"></polygon>
                        <polygon id="Fill-104" fill="#FEFEFE" mask="url(#mask-2)" points="384.856 146.853 404.755 146.853 404.755 144.863 384.856 144.863"></polygon>
                        <polygon id="Fill-105" fill="#FEFEFE" mask="url(#mask-2)" points="384.856 99.839 419.68 99.839 419.68 97.849 384.856 97.849"></polygon>
                        <path d="M266.0431,283 C266.0431,285.209 264.2521,287 262.0431,287 C259.8331,287 258.0431,285.209 258.0431,283 C258.0431,280.791 259.8331,279 262.0431,279 C264.2521,279 266.0431,280.791 266.0431,283 Z" id="Stroke-106" stroke="#FEFEFE" stroke-width="2" mask="url(#mask-2)"></path>
                        <path d="M266.6681,383.125 C266.6681,384.782 265.3241,386.125 263.6681,386.125 C262.0111,386.125 260.6681,384.782 260.6681,383.125 C260.6681,381.468 262.0111,380.125 263.6681,380.125 C265.3241,380.125 266.6681,381.468 266.6681,383.125 Z" id="Stroke-107" stroke="#FEFEFE" stroke-width="2" mask="url(#mask-2)"></path>
                        <path d="M266.6681,383.125 L388.4181,383.125 C401.6731,383.125 412.4181,372.38 412.4181,359.125 L412.4181,231.292" id="Stroke-108" stroke="#FEFEFE" stroke-width="2" mask="url(#mask-2)"></path>
                        <path d="M263.6681,386.125 L263.6681,391.458 C263.6681,398.086 269.0401,403.458 275.6681,403.458 L300.4181,403.458 C307.0451,403.458 312.4181,408.831 312.4181,415.458 L312.4181,423.625 L312.4181,438.875" id="Stroke-109" stroke="#FEFEFE" stroke-width="2" mask="url(#mask-2)"></path>
                        <path d="M209.3331,209.5596 L203.9711,209.5596 C202.3131,209.5596 200.9711,208.2166 200.9711,206.5596 L200.9711,201.1976 C200.9711,199.5396 202.3131,198.1976 203.9711,198.1976 L209.3331,198.1976 C210.9891,198.1976 212.3331,199.5396 212.3331,201.1976 L212.3331,206.5596 C212.3331,208.2166 210.9891,209.5596 209.3331,209.5596 Z" id="Stroke-110" stroke="#FEFEFE" stroke-width="2" stroke-linecap="round" mask="url(#mask-2)"></path>
                        <path d="M271.7745,144.6343 C272.2455,145.2913 271.7835,146.2063 270.9755,146.2173 L267.1285,146.2703 L263.2825,146.2173 C262.4745,146.2063 262.0125,145.2913 262.4835,144.6343 L266.3155,139.2893 C266.7145,138.7333 267.5425,138.7333 267.9415,139.2893 L271.7745,144.6343 Z" id="Stroke-111" stroke="#FEFEFE" stroke-width="2" stroke-linecap="round" mask="url(#mask-2)"></path>
                        <path d="M251.4767,269.2109 C251.4767,270.8679 250.1327,272.2109 248.4767,272.2109 C246.8197,272.2109 245.4767,270.8679 245.4767,269.2109 C245.4767,267.5539 246.8197,266.2109 248.4767,266.2109 C250.1327,266.2109 251.4767,267.5539 251.4767,269.2109 Z" id="Stroke-112" stroke="#FEFEFE" stroke-width="2" stroke-linecap="round" mask="url(#mask-2)"></path>
                        <path d="M183.3712,157.8315 L129.4182,157.8315" id="Stroke-113" stroke="#FEFEFE" stroke-width="2" mask="url(#mask-2)"></path>
                        <path d="M281.2228,77.6797 L281.2228,228.6247 C281.2228,235.2517 275.8498,240.6247 269.2228,240.6247 L166.4178,240.6247 C159.7898,240.6247 154.4178,245.9977 154.4178,252.6247 L154.4178,342.1247 C154.4178,348.7517 159.7898,354.1247 166.4178,354.1247 L234.7778,354.1247" id="Stroke-114" stroke="#FEFEFE" stroke-width="2" mask="url(#mask-2)"></path>
                        <path d="M382.4591,4 C382.4591,5.657 381.1161,7 379.4591,7 C377.8031,7 376.4591,5.657 376.4591,4 C376.4591,2.343 377.8031,1 379.4591,1 C381.1161,1 382.4591,2.343 382.4591,4 Z" id="Stroke-115" stroke="#FEFEFE" stroke-width="2" mask="url(#mask-2)"></path>
                    </g>
                </g>
            </g>
        </g>
    </g>
</svg>